<svg
  xmlns="http://www.w3.org/2000/svg"
  aria-hidden="true"
  overflow="hidden"
  style="position: absolute; width: 0; height: 0"
>
  <defs>
    <symbol id="icon-bus" viewBox="0 0 32 32">
      <path
        d="M5.333 18v7.2a4.145 4.145 0 0 0 4.133 4.133h13.067a4.145 4.145 0 0 0 4.133-4.133V18a.66.66 0 0 0-.667-.667h-20a.66.66 0 0 0-.667.667zm6.507 6.507c-.307.32-.733.493-1.173.493-.107 0-.213-.013-.32-.027-.107-.027-.213-.053-.32-.107-.093-.04-.2-.093-.28-.147-.093-.067-.187-.133-.253-.213-.32-.307-.493-.733-.493-1.173s.173-.867.493-1.173c.067-.08.16-.147.253-.213.08-.053.187-.107.28-.147.107-.053.213-.08.32-.107a1.68 1.68 0 0 1 1.493.467c.32.307.493.733.493 1.173s-.173.867-.493 1.173zm10.667 0c-.067.08-.16.147-.253.213-.08.053-.187.107-.28.147-.107.053-.213.08-.307.107-.12.013-.227.027-.333.027s-.213-.013-.32-.027c-.107-.027-.213-.053-.32-.107-.093-.04-.2-.093-.28-.147-.093-.067-.187-.133-.253-.213-.32-.307-.493-.733-.493-1.173s.173-.867.493-1.173c.067-.08.16-.147.253-.213.08-.053.187-.107.28-.147.107-.053.213-.08.32-.107.213-.04.427-.04.653 0 .093.027.2.053.307.107.093.04.2.093.28.147.093.067.187.133.253.213.32.307.493.733.493 1.173s-.173.867-.493 1.173zM22.533 2.667H9.466A4.136 4.136 0 0 0 5.333 6.8V10a.66.66 0 0 0 .667.667h20a.66.66 0 0 0 .667-.667V6.8a4.136 4.136 0 0 0-4.133-4.133zm-3.2 5h-6.667c-.547 0-1-.453-1-1s.453-1 1-1h6.667c.547 0 1 .453 1 1s-.453 1-1 1zM26 16H6a.66.66 0 0 1-.667-.667v-2.667A.66.66 0 0 1 6 11.999h20a.66.66 0 0 1 .667.667v2.667A.66.66 0 0 1 26 16z"
      />
    </symbol>
    <symbol id="icon-dribbble" viewBox="0 0 32 32">
      <path
        d="M32 16a15.991 15.991 0 0 1-7.055 13.265 16.123 16.123 0 0 1-2.718 1.475 16.045 16.045 0 0 1-12.457 0 16.132 16.132 0 0 1-2.719-1.475 16.34 16.34 0 0 1-2.366-1.953 16.162 16.162 0 0 1-1.953-2.368A15.93 15.93 0 0 1 0 16 15.972 15.972 0 0 1 4.686 4.685a16.038 16.038 0 0 1 5.085-3.429 15.782 15.782 0 0 1 3.006-.931 16.099 16.099 0 0 1 6.445 0 15.92 15.92 0 0 1 3.006.931 16.067 16.067 0 0 1 7.037 5.797 15.896 15.896 0 0 1 2.409 5.726c.216 1.052.327 2.137.327 3.221zM10.169 3.641a13.682 13.682 0 0 0-7.541 9.541c.36.003 6.054.075 12.615-1.668a82.171 82.171 0 0 0-5.074-7.873zm6.206 9.978C9.34 15.725 2.588 15.574 2.346 15.564c-.004.147-.011.289-.011.436 0 3.51 1.324 6.71 3.501 9.13-.005-.007 3.735-6.641 11.108-9.025.178-.059.359-.113.539-.164a45.494 45.494 0 0 0-1.109-2.322zm8.648-7.874a13.599 13.599 0 0 0-9.024-3.408c-1.11 0-2.188.134-3.22.383.205.275 2.771 3.68 5.108 7.97 5.156-1.933 7.102-4.895 7.136-4.945zm-6.608 12.46c-.03.01-.061.019-.091.03-8.062 2.81-10.695 8.474-10.723 8.536a13.634 13.634 0 0 0 8.398 2.892c1.892 0 3.695-.385 5.334-1.083-.202-1.194-.996-5.378-2.919-10.375zm5.22 9.126a13.669 13.669 0 0 0 5.855-9.166c-.281-.091-4.104-1.301-8.515-.594 1.792 4.925 2.52 8.936 2.66 9.759zm-4.696-14.604a44.183 44.183 0 0 1 1.203 2.689c4.694-.591 9.319.403 9.516.444a13.593 13.593 0 0 0-3.107-8.539c-.026.037-2.217 3.203-7.612 5.406z"
      />
    </symbol>
    <symbol id="icon-driving" viewBox="0 0 32 32">
      <path
        d="M16 25c-.547 0-1-.453-1-1v-1.333c0-.547.453-1 1-1s1 .453 1 1V24c0 .547-.453 1-1 1zM16 30.333c-.547 0-1-.453-1-1V28c0-.547.453-1 1-1s1 .453 1 1v1.333c0 .547-.453 1-1 1zM2.667 30.333a1.4 1.4 0 0 1-.24-.027 1.007 1.007 0 0 1-.733-1.213l1.333-5.333a1 1 0 0 1 1.213-.733c.533.133.867.68.733 1.213L3.64 29.573c-.12.453-.52.76-.973.76zM29.003 30.003a1.01 1.01 0 0 1-.973-.76l-1.333-5.333a.997.997 0 0 1 .733-1.213.997.997 0 0 1 1.213.733l1.333 5.333a.997.997 0 0 1-.733 1.213c-.08.013-.16.027-.24.027zM25.52 7.067c0 .4-.333.72-.72.72H7.373c-.4 0-.72-.333-.72-.72 0-.4.333-.72.72-.72h.987L8.733 4.6C9.08 2.893 9.8 1.333 12.68 1.333h6.787c2.88 0 3.613 1.56 3.96 3.253l.373 1.747h.987c.4 0 .733.333.733.733zM25.933 12.533c-.147-1.6-.573-3.293-3.68-3.293H9.906c-3.107 0-3.52 1.707-3.68 3.293l-.547 5.893a2.655 2.655 0 0 0 .68 2.027c.52.56 1.24.88 2.013.88h1.813c1.573 0 1.867-.893 2.067-1.493l.2-.587c.227-.667.28-.827 1.147-.827h4.96c.867 0 .893.093 1.147.827l.2.587c.187.6.493 1.493 2.053 1.493h1.813c.76 0 1.493-.32 2.013-.88a2.637 2.637 0 0 0 .68-2.027l-.533-5.893zm-12.76 2.027H10.28c-.4 0-.72-.333-.72-.72s.333-.72.72-.72h2.907c.4 0 .72.333.72.72s-.333.72-.733.72zm8.707 0h-2.907c-.4 0-.72-.333-.72-.72s.333-.72.72-.72h2.907c.4 0 .72.333.72.72s-.32.72-.72.72z"
      />
    </symbol>
    <symbol id="icon-instagram" viewBox="0 0 32 32">
      <path
        d="M16.001 0c-4.345 0-4.891.019-6.597.097C7.701.175 6.538.445 5.521.84c-1.052.409-1.945.955-2.834 1.845S1.25 4.467.84 5.519C.443 6.537.173 7.7.097 9.402.021 11.109.001 11.654.001 16s.019 4.889.097 6.596c.078 1.703.348 2.866.743 3.883.409 1.052.956 1.945 1.845 2.834s1.782 1.438 2.833 1.847c1.018.396 2.181.665 3.884.743C11.11 31.981 11.655 32 16 32s4.889-.019 6.596-.097c1.703-.078 2.867-.348 3.885-.743 1.052-.409 1.943-.957 2.832-1.847s1.437-1.782 1.847-2.834c.393-1.018.663-2.181.743-3.883C31.98 20.889 32 20.345 32 16s-.02-4.891-.097-6.597c-.08-1.703-.35-2.866-.743-3.883-.41-1.052-.957-1.945-1.847-2.834S27.533 1.249 26.48.841C25.46.445 24.297.176 22.593.098 20.886.02 20.343.001 15.996.001h.005zm-1.435 2.883h1.435c4.272 0 4.778.015 6.465.092 1.56.071 2.407.332 2.971.551.747.29 1.279.637 1.839 1.197s.907 1.093 1.197 1.84c.219.563.48 1.41.551 2.97.077 1.687.093 2.193.093 6.463s-.017 4.777-.093 6.463c-.071 1.56-.332 2.407-.551 2.97-.29.747-.637 1.278-1.197 1.838s-1.092.907-1.839 1.197c-.563.22-1.411.48-2.971.551-1.687.077-2.193.093-6.465.093s-4.779-.017-6.465-.093c-1.56-.072-2.407-.333-2.971-.552-.747-.29-1.28-.637-1.84-1.197s-.907-1.092-1.197-1.839c-.219-.563-.48-1.41-.551-2.97-.077-1.687-.092-2.193-.092-6.466s.015-4.777.092-6.463c.071-1.56.332-2.407.551-2.971.29-.747.637-1.28 1.197-1.84s1.093-.907 1.84-1.197c.564-.22 1.411-.48 2.971-.552 1.476-.067 2.048-.087 5.03-.09v.004zm9.976 2.657a1.92 1.92 0 1 0 0 3.84 1.92 1.92 0 0 0 0-3.84zm-8.541 2.243a8.217 8.217 0 1 0 0 16.434 8.217 8.217 0 0 0 0-16.434zm0 2.884a5.333 5.333 0 1 1 0 10.667 5.333 5.333 0 0 1 0-10.667z"
      />
    </symbol>
    <symbol id="icon-iost" viewBox="0 0 32 32">
      <path
        d="m26.013 8.56-8.667-5.093a2.662 2.662 0 0 0-2.707 0L5.972 8.56a2.682 2.682 0 0 0-1.32 2.293v10.28c0 .947.507 1.813 1.32 2.293l8.667 5.093c.84.493 1.867.493 2.707 0l8.667-5.093a2.682 2.682 0 0 0 1.32-2.293v-10.28c0-.933-.507-1.813-1.32-2.293zm-2.826 12.293-6.667 4c-.16.093-.333.147-.52.147s-.36-.053-.52-.147l-6.667-4c-.48-.28-.627-.893-.347-1.373s.893-.627 1.373-.347l6.147 3.693 4.72-2.84-2.48-1.493-.867.867c-.2.2-.453.293-.707.293s-.507-.093-.707-.293a1.005 1.005 0 0 1 0-1.413l.507-.507-2.4-1.44-.693.693c-.2.2-.453.293-.707.293s-.507-.093-.707-.293a1.005 1.005 0 0 1 0-1.413l.347-.347-3.48-2.093c-.307-.187-.48-.507-.48-.853s.187-.68.48-.853l6.667-4a1.01 1.01 0 0 1 1.027 0l6.667 4c.48.28.627.893.347 1.373a1.01 1.01 0 0 1-1.373.347L16 9.161l-4.72 2.84 2.48 1.493.867-.867c.387-.387 1.027-.387 1.413 0s.387 1.027 0 1.413l-.507.507 2.4 1.44.693-.693c.387-.387 1.027-.387 1.413 0s.387 1.027 0 1.413l-.347.347 3.48 2.093c.307.187.48.507.48.853s-.173.68-.467.853z"
      />
    </symbol>
    <symbol id="icon-python" viewBox="0 0 32 32">
      <path
        d="M20.026 2.973a26.325 26.325 0 0 0-8.053 0 2.233 2.233 0 0 0-1.893 2.2v4.907H5.173c-1.093 0-2.027.8-2.2 1.893a26.325 26.325 0 0 0 0 8.053 2.233 2.233 0 0 0 2.2 1.893h2.24a.66.66 0 0 0 .667-.667v-2.293a4.968 4.968 0 0 1 4.96-4.96h5.92c.533 0 .96-.427.96-.96V8.746a.66.66 0 0 1 .667-.667h.667a.66.66 0 0 0 .667-.667v-2.24c0-1.093-.8-2.027-1.893-2.2zM13.773 7.44c-.547 0-1.067-.52-1.067-1.067 0-.56.52-1.08 1.067-1.08.267 0 .56.12.747.307.2.187.333.493.333.773 0 .547-.52 1.067-1.08 1.067z"
      />
      <path
        d="M29.026 11.973a2.233 2.233 0 0 0-2.2-1.893h-4.24a.66.66 0 0 0-.667.667v2.293c0 1.627-1.32 2.96-2.96 2.96h-5.92c-1.64 0-2.96 1.32-2.96 2.96v7.867c0 1.093.8 2.027 1.893 2.2 2.667.413 5.387.413 8.053 0a2.233 2.233 0 0 0 1.893-2.2V21.92h4.907c1.093 0 2.027-.8 2.2-1.893a26.325 26.325 0 0 0 0-8.053zM18.227 26.707c-.547 0-1.08-.52-1.08-1.08s.52-1.08 1.08-1.08c.253 0 .56.12.747.293.2.187.333.507.333.773-.013.573-.533 1.093-1.08 1.093z"
      />
    </symbol>
    <symbol id="icon-ship" viewBox="0 0 32 32">
      <path
        d="m28.84 19.547-.547 2.48c-.947 4.267-4.293 7.307-9.12 7.307h-6.347c-4.827 0-8.173-3.04-9.12-7.307l-.547-2.48c-.267-1.213.453-2.587 1.613-3.053l9.24-3.707c.64-.253 1.32-.387 1.987-.387s1.347.133 1.987.387l9.24 3.707c1.16.467 1.88 1.84 1.613 3.053z"
      />
      <path
        d="M25.333 10.667v1.92c0 .467-.48.8-.92.613l-5.693-2.28a7.477 7.477 0 0 0-5.453.013l-5.68 2.28a.665.665 0 0 1-.92-.613v-1.933c0-2.2 1.8-4 4-4h10.667c2.2 0 4 1.8 4 4zM19.333 6.667h-6.667V4c0-.733.6-1.333 1.333-1.333h4c.733 0 1.333.6 1.333 1.333v2.667z"
      />
    </symbol>
    <symbol id="icon-smart-car" viewBox="0 0 32 32">
      <path
        d="M24.947 12.653c-.133 0-.267-.027-.4-.08a1.013 1.013 0 0 1-.52-1.32c.253-.573.107-1.413-.36-2.107-.467-.707-1.173-1.187-1.813-1.147a.99.99 0 0 1-1.013-.987c0-.56.44-1 .987-1.013 1.373-.027 2.667.76 3.507 2.027.853 1.28 1.053 2.813.533 4.013a.993.993 0 0 1-.92.613z"
      />
      <path
        d="M29.093 13.973a.92.92 0 0 1-.267-.04.993.993 0 0 1-.693-1.227c.507-1.813.08-3.973-1.133-5.787s-3.053-3.027-4.933-3.253c-.547-.067-.933-.56-.867-1.107s.573-.947 1.107-.867c2.44.293 4.813 1.84 6.347 4.133s2.053 5.067 1.4 7.44c-.12.413-.52.707-.96.707zM22.827 15.707a.74.74 0 0 1-.733.733H4.574c-.4 0-.733-.333-.733-.733s.333-.733.733-.733h.987l.373-1.76c.347-1.707 1.08-3.267 3.987-3.267h6.84c2.907 0 3.627 1.573 3.987 3.267l.373 1.76h.987c.387 0 .72.333.72.733zM23.24 21.213c-.147-1.6-.573-3.32-3.693-3.32H7.12c-3.12 0-3.547 1.72-3.693 3.32l-.547 5.933c-.067.733.173 1.48.68 2.04.52.56 1.24.88 2.027.88h1.827c1.573 0 1.88-.907 2.08-1.493l.2-.587c.227-.667.28-.84 1.16-.84h4.987c.88 0 .907.093 1.16.84l.2.587c.2.6.493 1.493 2.08 1.493h1.827c.773 0 1.507-.32 2.027-.88.507-.56.747-1.293.68-2.04l-.573-5.933zM10.413 23.24h-2.92c-.4 0-.733-.333-.733-.733s.333-.733.733-.733h2.92c.4 0 .733.333.733.733s-.333.733-.733.733zm8.76 0h-2.92c-.4 0-.733-.333-.733-.733s.333-.733.733-.733h2.92c.4 0 .733.333.733.733s-.333.733-.733.733z"
      />
    </symbol>
    <symbol id="icon-stack" viewBox="0 0 32 32">
      <path
        d="M16 2.667C8.64 2.667 2.667 8.64 2.667 16S8.64 29.333 16 29.333 29.333 23.36 29.333 16 23.36 2.667 16 2.667zM22 19h-4.067l2.653 3.76a.987.987 0 0 1-.24 1.387c-.173.12-.373.187-.573.187a.964.964 0 0 1-.813-.427l-3.067-4.347-3.067 4.347a1 1 0 0 1-.813.427c-.2 0-.4-.053-.573-.187a.991.991 0 0 1-.24-1.387L13.853 19h-3.827c-.547 0-1-.453-1-1s.453-1 1-1h12c.547 0 1 .453 1 1s-.48 1-1.027 1zm0-4H10c-.547 0-1-.453-1-1s.453-1 1-1h3.827l-2.653-3.76a.987.987 0 0 1 .24-1.387.987.987 0 0 1 1.387.24l3.067 4.347 3.067-4.347a.991.991 0 0 1 1.387-.24c.453.32.56.947.24 1.387L17.909 13h4.067c.547 0 1 .453 1 1s-.427 1-.973 1z"
      />
    </symbol>
    <symbol id="icon-twitter" viewBox="0 0 32 32">
      <path
        d="m15.538 9.448.069 1.211-1.156-.148c-4.208-.568-7.885-2.496-11.006-5.734L1.919 3.17l-.393 1.186c-.832 2.645-.301 5.437 1.434 7.316.925 1.038.717 1.186-.879.568-.555-.198-1.04-.346-1.087-.272-.162.173.393 2.422.832 3.312.601 1.236 1.827 2.447 3.168 3.164l1.133.568-1.341.025c-1.295 0-1.341.025-1.202.544.462 1.606 2.289 3.312 4.324 4.053l1.434.519-1.249.791a12.482 12.482 0 0 1-6.197 1.829c-1.04.025-1.896.124-1.896.198 0 .247 2.821 1.631 4.463 2.175 4.925 1.607 10.775.914 15.168-1.829 3.121-1.953 6.243-5.833 7.7-9.59.786-2.002 1.572-5.66 1.572-7.415 0-1.137.069-1.285 1.364-2.645.763-.791 1.48-1.656 1.619-1.903.231-.47.208-.47-.971-.049-1.965.741-2.243.643-1.272-.47.717-.791 1.572-2.224 1.572-2.645 0-.074-.347.049-.74.272-.416.247-1.341.618-2.035.84l-1.249.42-1.133-.816c-.624-.445-1.503-.939-1.965-1.087-1.179-.346-2.983-.297-4.046.099-2.89 1.112-4.717 3.979-4.509 7.118z"
      />
    </symbol>
    <symbol id="icon-youtube" viewBox="0 0 32 32">
      <path
        d="M28.502 2.836c1.377.46 2.461 1.815 2.829 3.536C32 9.491 32 16 32 16s0 6.508-.669 9.628c-.368 1.721-1.452 3.076-2.829 3.536C26.007 30 16 30 16 30s-10.007 0-12.502-.836c-1.377-.46-2.461-1.815-2.829-3.536C0 22.508 0 16 0 16s0-6.508.669-9.628c.368-1.721 1.452-3.076 2.829-3.536C5.993 2 16 2 16 2s10.007 0 12.502.836zM13 10.522v12.174l8-6.087-8-6.087z"
      />
    </symbol>
    <symbol id="icon-arrow" viewBox="0 0 32 32">
      <path
        d="M31.723 15.577l-9.907-9.693c-0.167-0.128-0.379-0.205-0.609-0.205-0.273 0-0.521 0.109-0.702 0.286l0-0c-0.178 0.175-0.289 0.419-0.289 0.688 0 0.226 0.078 0.434 0.208 0.598l-0.002-0.002 8.211 8.048h-27.64c-0.001 0-0.002 0-0.003 0-0.272 0-0.519 0.108-0.699 0.284l0-0c-0.179 0.175-0.289 0.419-0.289 0.688s0.111 0.513 0.289 0.688l0 0c0.187 0.183 0.439 0.284 0.701 0.284h27.627l-8.196 8.032c-0.216 0.166-0.36 0.418-0.381 0.703l-0 0.003c-0.001 0.019-0.002 0.042-0.002 0.064 0 0.269 0.111 0.511 0.29 0.685l0 0c0.179 0.176 0.425 0.285 0.697 0.285 0.024 0 0.047-0.001 0.070-0.002l-0.003 0c0.292-0.019 0.548-0.16 0.72-0.371l0.001-0.002 9.907-9.711c0.171-0.174 0.276-0.412 0.276-0.675s-0.105-0.501-0.276-0.675l0 0z"
      ></path>
    </symbol>
  </defs>
</svg>
